<svg xmlns="http://www.w3.org/2000/svg" fill="#FFFFFF" data-name="Layer 1" viewBox="0 0 89.27 93.3375" x="0px" y="0px"><title>Bird_Shadow</title><path d="M803,190.73l-15.27-6.36A32.33,32.33,0,0,0,735.16,147l-17.44-2.9c-2.17-.36-2.73.68-1.25,2.3l12.18,13.4a32.35,32.35,0,0,0,19.49,38l3.41,8.28a5.74,5.74,0,0,0,.52,1c-12.18.14-21.32,0.75-21.32,1.47s12,1.5,26.88,1.5,26.88-.67,26.88-1.5-8.59-1.29-20.21-1.45a5.2,5.2,0,0,0,.23-1.34l0.39-6.07a32.17,32.17,0,0,0,15-6.46L788.5,203a4.43,4.43,0,0,0,6.25.39l9-8C805.56,193.76,805.21,191.67,803,190.73Zm-69.9-22.06A27.94,27.94,0,0,1,761,140.73c-4.5,6.44-4.17,19.27-1,27.61C751.5,165.67,744.83,163.33,733.06,168.67ZM757.63,207l-4.33,0a5.25,5.25,0,0,0,.22-1.32l0.4-6.28A32.48,32.48,0,0,0,760,200h0.06l2.48,6a5.75,5.75,0,0,0,.52,1C761.31,207,759.49,207,757.63,207Z" transform="translate(-715.64 -135.33)"/><circle cx="33.36" cy="16.33" r="4.11"/></svg>